<svg xmlns="http://www.w3.org/2000/svg" width="12" height="10" fill="none"><path fill="#AAB2BB" d="M1.313 1.879v7.558H.222V.66h.996l.093 1.219Zm4.271 1.898V3.9c0 .461-.055.89-.164 1.284-.11.39-.27.73-.48 1.02-.208.288-.463.513-.768.673a2.22 2.22 0 0 1-1.049.24c-.402 0-.758-.066-1.066-.199a2.103 2.103 0 0 1-.786-.58 2.963 2.963 0 0 1-.515-.914 5.29 5.29 0 0 1-.258-1.201v-.657c.047-.468.135-.888.264-1.26.129-.37.299-.687.51-.949.214-.265.474-.466.779-.603.304-.14.656-.211 1.054-.211.399 0 .752.078 1.061.234.309.153.568.371.78.657.21.285.368.627.474 1.025.11.395.164.834.164 1.318Zm-1.09.123v-.123c0-.316-.033-.613-.1-.89a2.25 2.25 0 0 0-.31-.739 1.48 1.48 0 0 0-.527-.503 1.5 1.5 0 0 0-.768-.188c-.273 0-.512.047-.715.14-.199.094-.369.221-.51.382-.14.156-.255.335-.345.539-.086.199-.15.406-.194.62v1.518c.079.274.188.532.329.774a1.7 1.7 0 0 0 .562.58c.234.144.53.217.885.217.293 0 .545-.061.756-.182a1.53 1.53 0 0 0 .527-.51c.14-.215.244-.46.31-.738.067-.281.1-.58.1-.897ZM7.605.66l1.39 2.309L10.4.66h1.272L9.598 3.79 11.736 7h-1.254L9.018 4.621 7.553 7h-1.26l2.133-3.21L6.357.66h1.248Z"/></svg>