<svg xmlns="http://www.w3.org/2000/svg" width="9" height="10" fill="none"><path fill="#AAB2BB" d="M.826 2.56v-.45c0-.325.07-.62.211-.885.14-.266.342-.479.604-.64.261-.16.572-.24.931-.24.367 0 .68.08.938.24.261.161.463.374.603.64.14.265.211.56.211.884v.452c0 .316-.07.607-.21.873a1.592 1.592 0 0 1-.598.638c-.258.16-.569.24-.932.24-.363 0-.678-.08-.943-.24a1.634 1.634 0 0 1-.604-.638 1.837 1.837 0 0 1-.21-.873Zm.815-.45v.45c0 .18.033.35.1.51.07.16.175.291.316.393.14.098.316.146.527.146.21 0 .385-.048.521-.146a.917.917 0 0 0 .305-.393c.067-.16.1-.33.1-.51v-.45c0-.184-.035-.356-.106-.516a.859.859 0 0 0-.832-.545c-.207 0-.38.05-.521.152a.913.913 0 0 0-.31.393c-.067.16-.1.332-.1.515Zm3.34 5.255v-.457c0-.32.07-.613.21-.879.141-.265.342-.478.604-.638.262-.16.572-.24.932-.24.367 0 .68.08.937.24.262.16.463.373.604.638.14.266.21.559.21.88v.456c0 .32-.07.614-.21.88a1.592 1.592 0 0 1-.598.638c-.258.16-.568.24-.932.24-.363 0-.676-.08-.937-.24a1.678 1.678 0 0 1-.61-.639 1.849 1.849 0 0 1-.21-.879Zm.814-.457v.457c0 .18.033.352.1.516.07.16.175.29.316.392.14.098.316.147.527.147.211 0 .385-.049.522-.147a.9.9 0 0 0 .31-.392c.067-.16.1-.332.1-.516v-.457c0-.183-.035-.355-.106-.515a.863.863 0 0 0-.837-.54c-.207 0-.381.051-.522.153a.919.919 0 0 0-.31.387c-.067.16-.1.332-.1.515Zm1.201-5.226L2.83 8.35l-.61-.387 4.167-6.668.61.387Z"/></svg>